<?xml version="1.0" encoding="UTF-8" standalone="no"?>
<!-- Created with Inkscape (http://www.inkscape.org/) -->

<svg
   xmlns:dc="http://purl.org/dc/elements/1.1/"
   xmlns:cc="http://creativecommons.org/ns#"
   xmlns:rdf="http://www.w3.org/1999/02/22-rdf-syntax-ns#"
   xmlns:svg="http://www.w3.org/2000/svg"
   xmlns="http://www.w3.org/2000/svg"
   xmlns:sodipodi="http://sodipodi.sourceforge.net/DTD/sodipodi-0.dtd"
   xmlns:inkscape="http://www.inkscape.org/namespaces/inkscape"
   id="svg2"
   version="1.1"
   inkscape:version="0.91 r13725"
   xml:space="preserve"
   width="46.916302mm"
   height="59.063438mm"
   viewBox="0 0 166.23886 209.2799"
   sodipodi:docname="horton.svg"
   inkscape:export-filename="/home/toon/unief/code/horton/doc/horton.png"
   inkscape:export-xdpi="60.094254"
   inkscape:export-ydpi="60.094254"><title
     id="title4152">HORTON Logo</title><metadata
     id="metadata8"><rdf:RDF><cc:Work
         rdf:about=""><dc:format>image/svg+xml</dc:format><dc:type
           rdf:resource="http://purl.org/dc/dcmitype/StillImage" /><dc:title>HORTON Logo</dc:title><cc:license
           rdf:resource="http://creativecommons.org/licenses/by-nc-sa/4.0/" /><dc:date>April 30, 2014</dc:date><dc:creator><cc:Agent><dc:title>Wim Dewittte</dc:title></cc:Agent></dc:creator></cc:Work><cc:License
         rdf:about="http://creativecommons.org/licenses/by-nc-sa/4.0/"><cc:permits
           rdf:resource="http://creativecommons.org/ns#Reproduction" /><cc:permits
           rdf:resource="http://creativecommons.org/ns#Distribution" /><cc:requires
           rdf:resource="http://creativecommons.org/ns#Notice" /><cc:requires
           rdf:resource="http://creativecommons.org/ns#Attribution" /><cc:prohibits
           rdf:resource="http://creativecommons.org/ns#CommercialUse" /><cc:permits
           rdf:resource="http://creativecommons.org/ns#DerivativeWorks" /><cc:requires
           rdf:resource="http://creativecommons.org/ns#ShareAlike" /></cc:License></rdf:RDF></metadata><defs
     id="defs6" /><sodipodi:namedview
     pagecolor="#ffffff"
     bordercolor="#666666"
     borderopacity="1"
     objecttolerance="10"
     gridtolerance="10"
     guidetolerance="10"
     inkscape:pageopacity="0"
     inkscape:pageshadow="2"
     inkscape:window-width="1366"
     inkscape:window-height="704"
     id="namedview4"
     showgrid="false"
     inkscape:document-units="mm"
     units="mm"
     fit-margin-top="1"
     fit-margin-bottom="1"
     fit-margin-left="1"
     fit-margin-right="1"
     inkscape:zoom="1.2686561"
     inkscape:cx="-241.18523"
     inkscape:cy="122.71236"
     inkscape:window-x="0"
     inkscape:window-y="27"
     inkscape:window-maximized="1"
     inkscape:current-layer="g10" /><g
     id="g10"
     inkscape:groupmode="layer"
     inkscape:label="horton"
     transform="matrix(1.25,0,0,-1.25,-443.06144,476.8045)"><path
       d="m 380.291,245.8539 0,-11.751 -8.3393,0 0,11.751 c 0,0.8527 -0.6633,1.5163 -1.5162,1.5163 -0.8054,0 -1.5163,-0.6636 -1.5163,-1.5163 l 0,-27.4819 c 0,-0.8526 0.7109,-1.5162 1.5163,-1.5162 0.8529,0 1.5162,0.6636 1.5162,1.5162 l 0,12.6987 8.3393,0 0,-12.6987 c 0,-0.8526 0.7109,-1.5162 1.5162,-1.5162 0.853,0 1.5163,0.6636 1.5163,1.5162 l 0,27.4819 c 0,0.8527 -0.6633,1.5163 -1.5163,1.5163 -0.8053,0 -1.5162,-0.6636 -1.5162,-1.5163"
       style="fill:#4c4c4d;fill-opacity:1;fill-rule:nonzero;stroke:none"
       id="path12"
       inkscape:connector-curvature="0" /><path
       d="m 399.6232,241.613 c 0,3.0563 -2.5588,5.6149 -5.6386,5.6149 -3.1272,0 -5.6384,-2.5586 -5.6384,-5.6149 0,-3.1034 2.5112,-5.6146 5.6384,-5.6146 3.0798,0 5.6386,2.5112 5.6386,5.6146 z m -8.5288,0 c 0,1.6033 1.2792,2.8667 2.8902,2.8667 1.6109,0 2.8905,-1.2634 2.8905,-2.8667 0,-1.603 -1.2796,-2.8664 -2.8905,-2.8664 -1.611,0 -2.8902,1.2634 -2.8902,2.8664"
       style="fill:#4c4c4d;fill-opacity:1;fill-rule:nonzero;stroke:none"
       id="path14"
       inkscape:connector-curvature="0" /><path
       d="m 419.0023,237.325 0,2.6536 c 0,3.9798 -3.2219,7.2019 -7.202,7.2019 l -5.686,0 c -0.8053,0 -1.5163,-0.6633 -1.5163,-1.5162 l 0,-27.2923 c 0,-0.8526 0.711,-1.5162 1.5163,-1.5162 0.8529,0 1.5163,0.6636 1.5163,1.5162 l 0,11.7511 3.8854,0 4.5488,-12.2721 c 0.2843,-0.8056 1.1846,-1.1846 1.9425,-0.9003 0.8056,0.2844 1.1846,1.1846 0.9003,1.9426 l -4.3591,11.7508 c 2.6059,1.0899 4.4538,3.6484 4.4538,6.6809 z m -7.202,-4.1697 -4.1697,0 0,10.9927 4.1697,0 c 2.3216,0 4.1695,-1.8952 4.1695,-4.1694 l 0,-2.6536 c 0,-2.3218 -1.8479,-4.1697 -4.1695,-4.1697"
       style="fill:#4c4c4d;fill-opacity:1;fill-rule:nonzero;stroke:none"
       id="path16"
       inkscape:connector-curvature="0" /><path
       d="m 423.4564,247.1805 c -0.8053,0 -1.5163,-0.6633 -1.5163,-1.5162 0,-0.853 0.711,-1.5163 1.5163,-1.5163 l 4.6434,0 0,-25.776 c 0,-0.8526 0.7109,-1.5162 1.5163,-1.5162 0.8529,0 1.5162,0.6636 1.5162,1.5162 l 0,25.776 4.6434,0 c 0.853,0 1.5163,0.6633 1.5163,1.5163 0,0.8529 -0.6633,1.5162 -1.5163,1.5162 l -12.3193,0 z"
       style="fill:#4c4c4d;fill-opacity:1;fill-rule:nonzero;stroke:none"
       id="path18"
       inkscape:connector-curvature="0" /><path
       d="m 451.6965,241.613 c 0,3.0563 -2.5588,5.6149 -5.6386,5.6149 -3.1272,0 -5.6384,-2.5586 -5.6384,-5.6149 0,-3.1034 2.5112,-5.6146 5.6384,-5.6146 3.0798,0 5.6386,2.5112 5.6386,5.6146 z m -8.5288,0 c 0,1.6033 1.2792,2.8667 2.8902,2.8667 1.6109,0 2.8904,-1.2634 2.8904,-2.8667 0,-1.603 -1.2795,-2.8664 -2.8904,-2.8664 -1.611,0 -2.8902,1.2634 -2.8902,2.8664"
       style="fill:#4c4c4d;fill-opacity:1;fill-rule:nonzero;stroke:none"
       id="path20"
       inkscape:connector-curvature="0" /><path
       d="m 471.7865,216.9034 c 0.7107,0.142 1.1843,0.758 1.1843,1.4686 l 0,27.4819 c 0,0.8527 -0.6633,1.5163 -1.5159,1.5163 -0.853,0 -1.5163,-0.6636 -1.5163,-1.5163 0,0 0,-13.2196 0,-20.8482 -3.5538,7.2969 -10.3768,21.5115 -10.3768,21.5115 -0.3316,0.616 -1.0426,0.9477 -1.7059,0.8054 -0.7106,-0.1421 -1.1846,-0.758 -1.1846,-1.4687 l 0,-27.4819 c 0,-0.8526 0.6636,-1.5162 1.5163,-1.5162 0.8529,0 1.5162,0.6636 1.5162,1.5162 0,0 0,13.2197 0,20.8483 3.5065,-7.297 10.3768,-21.5116 10.3768,-21.5116 0.3317,-0.6159 1.0423,-0.9949 1.7059,-0.8053"
       style="fill:#4c4c4d;fill-opacity:1;fill-rule:nonzero;stroke:none"
       id="path22"
       inkscape:connector-curvature="0" /><path
       d="m 399.1181,225.5318 c 0,0.8529 -0.7163,1.5162 -1.5165,1.5162 l -7.6059,0 c -0.8476,0 -1.5157,-0.6633 -1.5157,-1.5162 0,-0.8532 0.6633,-1.5166 1.5157,-1.5166 l 7.6059,0 c 0.8053,0 1.5165,0.6634 1.5165,1.5166"
       style="fill:#4c4c4d;fill-opacity:1;fill-rule:nonzero;stroke:none"
       id="path24"
       inkscape:connector-curvature="0" /><path
       d="m 399.1181,220.5108 c 0,0.8529 -0.7163,1.5162 -1.5165,1.5162 l -7.6059,0 c -0.8476,0 -1.5157,-0.6633 -1.5157,-1.5162 0,-0.853 0.6633,-1.5166 1.5157,-1.5166 l 7.6059,0 c 0.8053,0 1.5165,0.6636 1.5165,1.5166"
       style="fill:#4c4c4d;fill-opacity:1;fill-rule:nonzero;stroke:none"
       id="path26"
       inkscape:connector-curvature="0" /><path
       d="m 399.1181,230.5528 c 0,0.8526 -0.7163,1.5165 -1.5165,1.5165 l -7.6059,0 c -0.8476,0 -1.5157,-0.6639 -1.5157,-1.5165 0,-0.8532 0.6633,-1.5165 1.5157,-1.5165 l 7.6059,0 c 0.8053,0 1.5165,0.6633 1.5165,1.5165"
       style="fill:#4c4c4d;fill-opacity:1;fill-rule:nonzero;stroke:none"
       id="path28"
       inkscape:connector-curvature="0" /><path
       d="m 451.2107,225.5318 c 0,0.8529 -0.7161,1.5162 -1.5163,1.5162 l -7.6062,0 c -0.8473,0 -1.5157,-0.6633 -1.5157,-1.5162 0,-0.8532 0.6633,-1.5166 1.5157,-1.5166 l 7.6062,0 c 0.8056,0 1.5163,0.6634 1.5163,1.5166"
       style="fill:#4c4c4d;fill-opacity:1;fill-rule:nonzero;stroke:none"
       id="path30"
       inkscape:connector-curvature="0" /><path
       d="m 451.2107,220.5108 c 0,0.8529 -0.7161,1.5162 -1.5163,1.5162 l -7.6062,0 c -0.8473,0 -1.5157,-0.6633 -1.5157,-1.5162 0,-0.853 0.6633,-1.5166 1.5157,-1.5166 l 7.6062,0 c 0.8056,0 1.5163,0.6636 1.5163,1.5166"
       style="fill:#4c4c4d;fill-opacity:1;fill-rule:nonzero;stroke:none"
       id="path32"
       inkscape:connector-curvature="0" /><path
       d="m 451.2107,230.5528 c 0,0.8526 -0.7161,1.5165 -1.5163,1.5165 l -7.6062,0 c -0.8473,0 -1.5157,-0.6639 -1.5157,-1.5165 0,-0.8532 0.6633,-1.5165 1.5157,-1.5165 l 7.6062,0 c 0.8056,0 1.5163,0.6633 1.5163,1.5165"
       style="fill:#4c4c4d;fill-opacity:1;fill-rule:nonzero;stroke:none"
       id="path34"
       inkscape:connector-curvature="0" /><path
       d="m 400.254,369.4436 c 0,0 -17.3217,-7.0197 -15.7184,-29.0868 0.4167,-5.7396 14.8938,-21.6307 14.3311,-22.1055 -2.628,-2.2147 -6.891,-3.596 -11.1538,-3.596 -13.9082,0 -30.4291,11.8707 -30.4291,27.2608 0,7.9401 4.0658,29.8653 10.8199,36.0006 3.5889,3.2595 28.8762,-5.9089 32.1503,-8.4731"
       style="fill:#4c4c4d;fill-opacity:1;fill-rule:evenodd;stroke:none"
       id="path36"
       inkscape:connector-curvature="0" /><path
       d="m 410.485,283.9731 c -4.9909,-0.8152 -8.4549,-2.7865 -11.0213,-8.1672 -1.4211,-2.9795 -2.3701,-9.2684 -2.7397,-15.0743 -0.1077,-1.6937 0.8634,-5.6685 -4.1879,-5.4182 -19.5268,0.968 -17.6505,6.1169 -17.6505,38.4761 0,6.7691 0.9935,13.7704 4.5947,20.1141 0,0 12.2238,-5.2212 21.6819,2.8114 0.1411,0.1201 6.6393,-8.54 7.3947,-11.2556 1.0559,-3.7941 2.306,-12.3423 2.5166,-17.4373 0.0978,-2.3921 -0.4473,-4.026 -0.5885,-4.049"
       style="fill:#4c4c4d;fill-opacity:1;fill-rule:evenodd;stroke:none"
       id="path38"
       inkscape:connector-curvature="0" /><path
       d="m 420.0262,279.2645 -0.0321,0 c -2.6974,0 -3.1059,0.4206 -5.5278,1.258 -2.0631,0.7135 1.0094,8.9441 -3.9078,26.4302 -1.9114,6.7958 -22.4949,23.4338 -22.961,35.9212 -0.7205,19.3215 12.0277,28.0905 33.4962,28.2045 l -1.0675,-91.8139 z m -12.2369,55.5641 c 1.6897,0 3.0594,-1.3175 3.0594,-2.9423 0,-1.6243 -1.3697,-1.5707 -3.0594,-1.5707 -1.6897,0 -3.0589,-0.0536 -3.0589,1.5707 0,1.6248 1.3692,2.9423 3.0589,2.9423"
       style="fill:#4c4c4d;fill-opacity:1;fill-rule:evenodd;stroke:none"
       id="path40"
       inkscape:connector-curvature="0" /><path
       d="m 429.2691,283.9731 c 4.9907,-0.8147 10.5908,-2.7865 13.1564,-8.1672 1.4208,-2.9792 2.3707,-9.2684 2.7403,-15.0743 0.1074,-1.6937 -0.8637,-5.6685 4.1879,-5.4182 19.5267,0.968 17.6505,6.1169 17.6505,38.4761 0,6.7691 -0.9941,13.7704 -4.5947,20.1141 0,0 -12.2238,-5.2212 -21.6822,2.8114 -0.1409,0.1201 -6.6402,-8.54 -7.3944,-11.2556 -1.5517,-5.5757 -4.5037,-21.4149 -4.0638,-21.4863"
       style="fill:#4c4c4d;fill-opacity:1;fill-rule:evenodd;stroke:none"
       id="path42"
       inkscape:connector-curvature="0" /><path
       d="m 419.7285,279.2645 0.0318,0 c 2.7011,0 3.416,-0.1962 5.5287,1.258 2.0741,1.4278 1.1279,9.3427 6.0423,26.4302 1.9517,6.7873 22.4949,23.4338 22.9609,35.9212 0.7206,19.3215 -12.0282,28.0905 -33.4961,28.2045 l -6.613,-39.6423 5.5454,-52.1716 z m 14.3717,55.5641 c -1.6897,0 -3.0594,-1.3175 -3.0594,-2.9423 0,-1.6243 1.3697,-1.5707 3.0594,-1.5707 1.6897,0 3.0591,-0.0536 3.0591,1.5707 0,1.6248 -1.3694,2.9423 -3.0591,2.9423"
       style="fill:#4c4c4d;fill-opacity:1;fill-rule:evenodd;stroke:none"
       id="path44"
       inkscape:connector-curvature="0" /><path
       d="m 413.5011,287.0311 c -0.1233,-2.1776 -0.6344,-7.1302 -4.0343,-8.6352 -3.7562,-1.6625 -5.779,0.7467 -5.318,-4.1918 0.1777,-1.9046 22.0286,-4.8938 22.5997,11.9712 0.2809,8.3152 -2.459,15.1983 -5.5975,15.1563 -3.2953,-0.0436 -6.8769,-7.5262 -7.6499,-14.3005"
       style="fill:#4c4c4d;fill-opacity:1;fill-rule:evenodd;stroke:none"
       id="path46"
       inkscape:connector-curvature="0" /><path
       d="m 441.6358,369.4436 c 0,0 17.3217,-7.0197 15.7184,-29.0868 -0.4173,-5.7396 -14.8938,-21.6307 -14.3314,-22.1055 2.628,-2.2147 6.891,-3.596 11.1538,-3.596 13.9084,0 30.429,11.8707 30.429,27.2608 0,7.9401 -4.0657,29.8653 -10.8195,36.0006 -3.589,3.2595 -28.8763,-5.9089 -32.1503,-8.4731"
       style="fill:#4c4c4d;fill-opacity:1;fill-rule:evenodd;stroke:none"
       id="path48"
       inkscape:connector-curvature="0" /></g></svg>
